<?xml version="1.0" encoding="utf-8"?>
<!-- Generator: Adobe Illustrator 20.1.0, SVG Export Plug-In . SVG Version: 6.00 Build 0)  -->
<svg version="1.2" baseProfile="tiny" id="icons" xmlns="http://www.w3.org/2000/svg" xmlns:xlink="http://www.w3.org/1999/xlink"
	 x="0px" y="0px" viewBox="0 0 900 900" overflow="scroll" xml:space="preserve">
<g>
	<path fill="#424242" d="M591.4,108.2l-7.4,5.1V103c0-0.6-0.4-1-1-1h-26c-0.6,0-1,0.4-1,1v10.2l-7.4-5.1c-0.5-0.3-1.1-0.2-1.4,0.3
		c-0.3,0.5-0.2,1.1,0.3,1.4l18.7,12.7c1.1,0.7,2.5,1.1,3.9,1.1s2.8-0.4,3.9-1.1l18.7-12.7c0.5-0.3,0.6-0.9,0.3-1.4
		C592.5,108,591.9,107.9,591.4,108.2z M572.7,120.9c-1.5,1-4,1-5.5,0l-9.4-6.4c0.1-0.1,0.2-0.3,0.2-0.5v-10h24v10
		c0,0.2,0.1,0.4,0.2,0.5L572.7,120.9z"/>
	<path fill="#424242" d="M595.5,104.3l-21.7-16.7c-1-0.8-2.4-1.2-3.8-1.2s-2.8,0.4-3.8,1.2l-21.7,16.7c-0.9,0.7-1.5,2-1.5,3.2V135
		c0,2.8,2.2,5,5,5h44c2.8,0,5-2.2,5-5v-27.5C597,106.4,596.3,105,595.5,104.3z M595,135c0,1.7-1.3,3-3,3h-44c-1.7,0-3-1.3-3-3v-27.5
		c0-0.5,0.4-1.3,0.7-1.6l21.7-16.7c0.7-0.5,1.6-0.8,2.6-0.8c1,0,1.9,0.3,2.6,0.8l21.7,16.7c0.4,0.3,0.7,1.1,0.7,1.6V135z"/>
	<path fill="#424242" d="M577,108h-14c-0.6,0-1,0.4-1,1s0.4,1,1,1h14c0.6,0,1-0.4,1-1S577.6,108,577,108z"/>
	<path fill="#424242" d="M577,112h-14c-0.6,0-1,0.4-1,1s0.4,1,1,1h14c0.6,0,1-0.4,1-1S577.6,112,577,112z"/>
</g>
</svg>
