<?xml version="1.0" encoding="utf-8"?>
<!-- Generator: Adobe Illustrator 20.1.0, SVG Export Plug-In . SVG Version: 6.00 Build 0)  -->
<svg version="1.2" baseProfile="tiny" id="icons" xmlns="http://www.w3.org/2000/svg" xmlns:xlink="http://www.w3.org/1999/xlink"
	 x="0px" y="0px" viewBox="0 0 900 900" overflow="scroll" xml:space="preserve">
<g>
	<path fill="#424242" d="M356.7,690.3c-0.1-1-0.8-1.8-1.9-2.6l-11.8-8.1c-0.6-0.4-1.3-0.6-2.1-0.6c-1.1,0-2.2,0.5-2.9,1.4l-3.1,4.3
		c-0.2,0.3-0.3,0.8-0.3,1.2c-1.2,0.2-4.6,0.1-10.2-5.5c-5.4-5.4-8-9.4-7.6-11.8c0.1,0,0.1-0.1,0.2-0.1c0.3-0.1,0.5-0.2,0.7-0.3
		l4.2-3.2c1.5-1.1,1.8-3.4,0.7-5l-8.5-11.6c-1.6-2.2-3.5-2.5-5.6-0.7c-1.3,1.1-3.5,3.8-4.4,5.4c-0.5,0.9-0.7,1.8-0.6,2.7
		c-0.3,1.3-1,5.1,0.1,10.5c1.5,7.3,5.7,14.2,12.4,20.7c11.2,10.8,21,12.5,25.9,12.5h0c2.9,0,4.9-0.5,5.8-0.9c0.9,0,1.7-0.2,2.5-0.7
		c1.6-0.9,4.2-3.2,5.3-4.5C356.5,692.2,356.9,691.3,356.7,690.3z M354.1,692c-0.9,1.2-3.4,3.3-4.8,4.1c-0.2,0.1-0.4,0.2-0.6,0.3
		c-1.4-0.6-3.7-1.8-4.4-2.7c-0.3-0.4-1-0.5-1.4-0.2c-0.4,0.3-0.5,1-0.2,1.4c0.6,0.8,1.8,1.6,2.9,2.2c-0.9,0.2-2.1,0.4-3.6,0.4h0
		c-4.6,0-13.8-1.5-24.5-11.9c-15.2-14.8-12.4-28-12-29.4c0-0.1,0-0.3,0-0.4c-0.1-0.5,0-1.1,0.3-1.6c0.8-1.4,2.8-3.9,3.9-4.9
		c0.5-0.4,1-0.7,1.3-0.7c0.2,0,0.6,0,1.4,1l8.5,11.6c0.5,0.7,0.4,1.7-0.2,2.2l-4.2,3.2c0,0,0,0-0.1,0c-1.1-0.8-2.6-2.1-3.1-2.9
		c-0.3-0.5-0.9-0.6-1.4-0.3c-0.5,0.3-0.6,0.9-0.3,1.4c0.6,1,2.2,2.3,3.2,3.1c-0.8,3.3,1.7,7.6,8.1,14c5.1,5.1,8.8,6.1,11,6.1
		c1,0,1.7-0.2,2.1-0.4c0.3-0.2,0.5-0.4,0.5-0.7c0-0.1,0-0.3,0-0.5c0-0.1,0-0.3,0-0.4l3-4.2c0.5-0.6,1.5-0.8,2.2-0.3l11.8,8.1
		c0.7,0.4,1,0.9,1.1,1.2C354.8,691,354.6,691.4,354.1,692z"/>
	<path fill="#424242" d="M328.8,658c7.7,2.4,13.8,8.4,16.2,16.1c0.1,0.4,0.5,0.7,1,0.7c0.1,0,0.2,0,0.3,0c0.5-0.2,0.8-0.7,0.7-1.3
		c-2.6-8.4-9.1-14.9-17.5-17.4c-0.5-0.2-1.1,0.1-1.2,0.7C328,657.3,328.3,657.9,328.8,658z"/>
	<path fill="#424242" d="M330.2,650.6c11.6,2.7,20.5,12.1,22.6,23.8c0.1,0.5,0.5,0.8,1,0.8c0.1,0,0.1,0,0.2,0
		c0.5-0.1,0.9-0.6,0.8-1.2c-2.3-12.5-11.7-22.5-24.1-25.4c-0.5-0.1-1.1,0.2-1.2,0.7C329.3,650,329.6,650.5,330.2,650.6z"/>
</g>
</svg>
