<?xml version="1.0" encoding="utf-8"?>
<!-- Generator: Adobe Illustrator 20.1.0, SVG Export Plug-In . SVG Version: 6.00 Build 0)  -->
<svg version="1.2" baseProfile="tiny" id="icons" xmlns="http://www.w3.org/2000/svg" xmlns:xlink="http://www.w3.org/1999/xlink"
	 x="0px" y="0px" viewBox="0 0 900 900" xml:space="preserve">
<g>
	<path fill="#424242" d="M89.3,367.7c0.2,0.2,0.5,0.3,0.7,0.3c0.3,0,0.6-0.1,0.8-0.3c0.3-0.4,8.5-9.7,13-20c1-2.1,1.5-4.3,1.5-6.5
		c0-8.4-6.8-15.2-15.3-15.2c-8.4,0-15.3,6.8-15.3,15.2c0,2.3,0.5,4.5,1.5,6.5C80.6,358,88.9,367.3,89.3,367.7z M89.9,328
		c7.3,0,13.3,5.9,13.3,13.2c0,2-0.4,3.8-1.3,5.7c-3.6,8.2-9.8,16.1-11.9,18.6c-2.2-2.6-8.4-10.4-12-18.7c-0.8-1.8-1.3-3.7-1.3-5.6
		C76.7,333.9,82.6,328,89.9,328z"/>
	<path fill="#424242" d="M89.9,348.2c4,0,7.2-3.2,7.2-7.2c0-4-3.2-7.2-7.2-7.2c-4,0-7.2,3.2-7.2,7.2C82.7,345,86,348.2,89.9,348.2z
		 M89.9,335.8c2.9,0,5.2,2.3,5.2,5.2s-2.3,5.2-5.2,5.2c-2.9,0-5.2-2.3-5.2-5.2S87.1,335.8,89.9,335.8z"/>
	<path fill="#424242" d="M116,378.7l-6-23c-0.1-0.3-0.3-0.6-0.6-0.7l-5-2l-0.7,1.9l4.5,1.8l5.3,20.4l-10-5c-0.3-0.1-0.6-0.1-0.9,0
		L90,377.9l-12.6-5.8c-0.3-0.1-0.6-0.1-0.9,0l-10,5l5.3-20.4l4.5-1.8l-0.7-1.9l-5,2c-0.3,0.1-0.5,0.4-0.6,0.7l-6,23
		c-0.1,0.4,0,0.8,0.3,1c0.3,0.2,0.7,0.3,1.1,0.1l11.6-5.8l12.6,5.8c0.3,0.1,0.6,0.1,0.8,0l12.6-5.8l11.6,5.8
		c0.1,0.1,0.3,0.1,0.4,0.1c0.2,0,0.4-0.1,0.6-0.2C115.9,379.5,116.1,379.1,116,378.7z"/>
</g>
</svg>
