<svg id="Layer_1" data-name="Layer 1" xmlns="http://www.w3.org/2000/svg" viewBox="0 0 16 16"><title>instagram-logo</title><path d="M14.4,0H1.6A1.6,1.6,0,0,0,0,1.6V14.4A1.6,1.6,0,0,0,1.6,16H14.4A1.6,1.6,0,0,0,16,14.4V1.6A1.6,1.6,0,0,0,14.4,0ZM8,4.8A3.2,3.2,0,1,1,4.8,8,3.21,3.21,0,0,1,8,4.8ZM2,14.4a.38.38,0,0,1-.4-.4V7.2H3.28A2.68,2.68,0,0,0,3.2,8a4.8,4.8,0,1,0,9.6,0,2.68,2.68,0,0,0-.08-.8H14.4V14a.38.38,0,0,1-.4.4ZM14.4,3.6A.38.38,0,0,1,14,4H12.4a.38.38,0,0,1-.4-.4V2a.38.38,0,0,1,.4-.4H14a.38.38,0,0,1,.4.4Zm0,0"/></svg>