<?xml version="1.0" encoding="utf-8"?>
<!-- Generator: Adobe Illustrator 20.1.0, SVG Export Plug-In . SVG Version: 6.00 Build 0)  -->
<svg version="1.2" baseProfile="tiny" id="Layer_1" xmlns="http://www.w3.org/2000/svg" xmlns:xlink="http://www.w3.org/1999/xlink"
	 x="0px" y="0px" viewBox="0 0 360 360" overflow="scroll" xml:space="preserve">
<path d="M139,241.4h13.3c0,0,7.3-13.4,20.6-17.5s41.8-4.6,58.5-53c0,0-5.6,18.9-35.3,29C166.3,210.1,143.8,213.2,139,241.4z"/>
<path d="M255.3,111.9c-15.1-64.9-113.4-56-126.6-27c0,0,29.2-14.5,47.5-5.6c0,0-27.6-1.5-37.7,6.2c0,0,14.1,0,19.9,1.6
	c5.8,1.6,16.5,4,32.1,0.9c15.6-3.1,28.1-3.4,27.9,4.9c-0.2,8.3-12.5,17.6-25.8,9.1c0,0,20.7-0.2,21.4-9.4s-25.2,0.4-38.4,0.2
	s-40.3-7.6-56.9,2.9s-43,29.6-42.3,34.6c0.7,5.1,3.3,8.2,4.9,7.8c1.6-0.4,12.9-9.4,13.1-4.9s-11.6,3.4-11.8,7.1
	c-0.2,3.6,8.5,15.4,10.7,14.3c2.2-1.1,2.4-2,8.7-1.1c6.3,0.9,19-2.5,21.4-3.1s1.5,6.2-1.1,6.9s-24.7-4-26.8-2.4
	c-2.2,1.6,7.3,25.6,23.9,25.2c0,0-3.1-14.7,8.2-18.5c11.2-3.8,49.5,14.3,63.5-39.2c0,0,2.5,25-18.1,36.3c0,0,2.2,20.7-7.3,25.8
	c0,0,34.1-17,34.8-43.9c0,0,2.4,26.8-34.8,49.1s-51.9,34.8-51.9,51.7h13.4c0,0-2.4-16.3,21.4-27c23.8-10.7,43.9-14.1,58.6-23.4
	c14.7-9.2,31.4-25.6,25.6-59.1c0,0,16.1,14.3-4.7,65.5C228.1,197.3,270.4,176.8,255.3,111.9z M140.8,99.2
	c-2.2,13.1-16.4,6.6-16.4,6.6c-1.7,0.2-2.2,1.6-3.4,2.7s-3.3,1.3-3.8,0c-0.5-1.3,4.2-1.5,6.3-5.4c2.1-3.9,19.8-8.2,20.5-5.7
	C144.7,99.8,140.8,99.2,140.8,99.2z"/>
<path d="M127.1,245.9v41.7h8.3v10.4h-21.8v-52.2H127.1z M152.2,245.9v52.2h-13.6v-52.2H152.2z M188.7,276.4c0,5.2-0.1,9-0.4,11.1
	c-0.2,2.2-1,4.2-2.3,6c-1.3,1.8-3.1,3.2-5.3,4.2c-2.2,1-4.8,1.5-7.7,1.5c-2.8,0-5.3-0.5-7.5-1.4c-2.2-0.9-4-2.3-5.4-4.1
	c-1.4-1.8-2.2-3.8-2.4-6c-0.3-2.1-0.4-5.9-0.4-11.3v-8.9c0-5.2,0.1-9,0.4-11.1c0.2-2.2,1-4.2,2.3-6c1.3-1.8,3.1-3.2,5.3-4.2
	c2.2-1,4.8-1.5,7.7-1.5c2.8,0,5.3,0.5,7.5,1.4c2.2,0.9,4,2.3,5.4,4.1c1.4,1.8,2.2,3.8,2.4,6c0.3,2.1,0.4,5.9,0.4,11.3V276.4z
	 M175.1,259.3c0-2.4-0.1-4-0.4-4.7c-0.3-0.7-0.8-1-1.7-1c-0.7,0-1.3,0.3-1.6,0.8c-0.4,0.5-0.6,2.2-0.6,4.9v24.4c0,3,0.1,4.9,0.4,5.6
	c0.2,0.7,0.8,1.1,1.7,1.1c0.9,0,1.5-0.4,1.8-1.2c0.3-0.8,0.4-2.8,0.4-5.8V259.3z M224.1,245.9v52.2h-11.9l-7.1-23.7v23.7h-11.3
	v-52.2h11.3l7.6,23.5v-23.5H224.1z M258.3,261.7h-12.6v-3.9c0-1.8-0.2-3-0.5-3.4c-0.3-0.5-0.9-0.7-1.6-0.7c-0.8,0-1.4,0.3-1.9,1
	c-0.4,0.7-0.6,1.7-0.6,3c0,1.7,0.2,3.1,0.7,3.9c0.4,0.9,1.7,1.9,3.8,3.2c6,3.6,9.8,6.5,11.4,8.8c1.6,2.3,2.4,6,2.4,11.1
	c0,3.7-0.4,6.5-1.3,8.2c-0.9,1.8-2.6,3.2-5,4.4c-2.5,1.2-5.4,1.8-8.7,1.8c-3.6,0-6.7-0.7-9.3-2.1s-4.2-3.1-5-5.3
	c-0.8-2.1-1.2-5.1-1.2-9.1v-3.4h12.6v6.4c0,2,0.2,3.2,0.5,3.8c0.4,0.6,1,0.8,1.9,0.8s1.6-0.4,2-1.1c0.4-0.7,0.7-1.8,0.7-3.2
	c0-3.1-0.4-5.1-1.3-6c-0.9-0.9-3-2.5-6.4-4.7c-3.4-2.2-5.6-3.9-6.7-4.9c-1.1-1-2-2.4-2.7-4.2c-0.7-1.8-1.1-4.1-1.1-6.8
	c0-4,0.5-6.9,1.5-8.8c1-1.8,2.7-3.3,4.9-4.3c2.3-1,5-1.6,8.3-1.6c3.5,0,6.5,0.6,9,1.7c2.5,1.1,4.1,2.6,4.9,4.3
	c0.8,1.7,1.2,4.7,1.2,8.8V261.7z"/>
</svg>
